<svg width="40" height="40" viewBox="0 0 40 40" fill="none" xmlns="http://www.w3.org/2000/svg">
<path d="M15.2941 36.3687L15.2864 36.3303C15.2393 36.0201 15.2726 35.7029 15.3833 35.4093C15.494 35.1157 15.6783 34.8554 15.9185 34.6536C18.5807 32.2783 30.8774 20.4547 25.7282 6.63984L26.682 6.08967C27.587 5.17458 44.4849 15.0484 26.4076 32.9872C23.9686 35.4075 21.1284 36.8176 16.9482 37.4554C16.5863 37.5158 16.215 37.4374 15.9083 37.236C15.6017 37.0345 15.3824 36.7248 15.2941 36.3687Z" stroke="black" stroke-linecap="round" stroke-linejoin="round"/>
<path d="M26.6989 10.2295C26.2946 22.514 14.1279 30.5938 11.3289 32.2234C11.2028 32.2962 11.0858 32.384 10.9806 32.4847C10.7961 32.6375 10.6467 32.8283 10.5426 33.044C10.4385 33.2597 10.3821 33.4954 10.3772 33.7349C10.3718 34.0189 10.4435 34.2991 10.5848 34.5456C10.7262 34.7921 10.9317 34.9956 11.1796 35.1344C12.1873 35.6071 13.7485 35.5387 15.5896 35.0286" stroke="black" stroke-linecap="round" stroke-linejoin="round"/>
<path d="M26.011 7.4502C24.655 21.2462 9.80546 27.8505 6.53372 28.995C6.23529 29.0894 5.96628 29.2593 5.75271 29.4881C5.53914 29.7169 5.38824 29.997 5.31461 30.3012C5.25629 30.5793 5.27469 30.868 5.36782 31.1364C5.46095 31.4049 5.62531 31.6429 5.84331 31.8251C6.86339 32.5715 8.71696 32.7581 10.981 32.4845" stroke="black" stroke-linecap="round" stroke-linejoin="round"/>
<path d="M26.6821 6.08981L24.7947 2.98734C24.6763 2.84967 24.5308 2.73793 24.3672 2.65911C24.2037 2.58028 24.0256 2.53608 23.8442 2.52925C23.6627 2.52243 23.4818 2.55314 23.3128 2.61945C23.1438 2.68577 22.9903 2.78627 22.8619 2.91465C22.7361 3.04044 22.6371 3.19038 22.5707 3.35544C22.5044 3.52051 22.4721 3.69728 22.4759 3.87514C22.4796 4.05299 22.5193 4.22825 22.5926 4.39037C22.6658 4.55249 22.7711 4.69812 22.9021 4.8185L25.7283 6.63996" stroke="black" stroke-linecap="round" stroke-linejoin="round"/>
<path d="M28.752 8.80566C29.8816 9.90207 30.7873 11.2077 31.4185 12.6498" stroke="black" stroke-linecap="round" stroke-linejoin="round"/>
<path d="M23.5519 32.2422C22.7531 33.1349 21.7719 33.8457 20.6748 34.3267" stroke="black" stroke-linecap="round" stroke-linejoin="round"/>
<path d="M12.0639 28.749C11.0824 29.4423 9.96862 29.9258 8.79199 30.1694" stroke="black" stroke-linecap="round" stroke-linejoin="round"/>
</svg>
