<svg width="40" height="40" viewBox="0 0 40 40" fill="none" xmlns="http://www.w3.org/2000/svg">
<path d="M13.0996 16.5319C13.7458 8.53363 16.5836 2.5 19.9977 2.5C23.4031 2.5 26.2496 8.53363 26.8958 16.5406" stroke="black" stroke-linecap="round" stroke-linejoin="round"/>
<path d="M20.0064 28.7299C18.917 24.7529 16.9643 21.0649 14.2871 17.9287L13.0996 16.5316L10.4975 13.4668L10.4713 19.3171C10.4221 23.8716 11.4989 28.3678 13.606 32.4059C14.1725 33.538 14.8795 34.5942 15.7104 35.5494C16.9677 36.8679 18.2775 37.7672 19.2205 37.4267C19.2555 37.4092 19.2904 37.4005 19.3253 37.383C19.6107 37.2309 19.8469 37.0007 20.0064 36.7194" stroke="black" stroke-linecap="round" stroke-linejoin="round"/>
<path d="M29.499 13.4629L29.527 19.3152C29.5763 23.8705 28.5009 28.3676 26.3959 32.4078C25.8301 33.5402 25.1208 34.595 24.2855 35.5462C23.0312 36.8675 21.7206 37.77 20.7768 37.4265C19.833 37.083 19.4092 35.5492 19.2977 33.7308C19.2692 32.4652 19.4039 31.2012 19.6984 29.9701C20.6829 25.5221 22.7498 21.3858 25.7157 17.928L29.499 13.4629Z" stroke="black" stroke-linecap="round" stroke-linejoin="round"/>
<path d="M10.4715 19.3171C10.4715 19.3171 6.44773 18.7696 3.5498 21.3514C3.5498 21.3514 9.06525 21.0229 11.1022 25.4813" stroke="black" stroke-linecap="round" stroke-linejoin="round"/>
<path d="M29.5282 19.3171C29.5282 19.3171 33.552 18.7696 36.4499 21.3514C36.4499 21.3514 30.9344 21.0229 28.8975 25.4813" stroke="black" stroke-linecap="round" stroke-linejoin="round"/>
<path d="M18.9023 12.3877H20.9194" stroke="black" stroke-linecap="round" stroke-linejoin="round"/>
<path d="M15.0176 14.8818H17.0346" stroke="black" stroke-linecap="round" stroke-linejoin="round"/>
<path d="M23.3965 14.8818H25.4135" stroke="black" stroke-linecap="round" stroke-linejoin="round"/>
<path d="M18.9023 18.1709H20.9194" stroke="black" stroke-linecap="round" stroke-linejoin="round"/>
<path d="M16.2334 9.52051H18.2504" stroke="black" stroke-linecap="round" stroke-linejoin="round"/>
<path d="M21.625 9.52051H23.642" stroke="black" stroke-linecap="round" stroke-linejoin="round"/>
</svg>
