<svg width="30" height="30" viewBox="0 0 30 30" fill="none" xmlns="http://www.w3.org/2000/svg">
<path d="M5 6.875C4.83424 6.875 4.67527 6.80915 4.55806 6.69194C4.44085 6.57473 4.375 6.41576 4.375 6.25C4.375 6.08424 4.44085 5.92527 4.55806 5.80806C4.67527 5.69085 4.83424 5.625 5 5.625C5.16576 5.625 5.32473 5.69085 5.44194 5.80806C5.55915 5.92527 5.625 6.08424 5.625 6.25C5.625 6.41576 5.55915 6.57473 5.44194 6.69194C5.32473 6.80915 5.16576 6.875 5 6.875ZM5 8.4375C5.28727 8.4375 5.57172 8.38092 5.83712 8.27099C6.10252 8.16105 6.34367 7.99992 6.5468 7.7968C6.74992 7.59367 6.91105 7.35252 7.02099 7.08712C7.13092 6.82172 7.1875 6.53727 7.1875 6.25C7.1875 5.96273 7.13092 5.67828 7.02099 5.41288C6.91105 5.14748 6.74992 4.90633 6.5468 4.7032C6.34367 4.50008 6.10252 4.33895 5.83712 4.22901C5.57172 4.11908 5.28727 4.0625 5 4.0625C4.41984 4.0625 3.86344 4.29297 3.4532 4.7032C3.04297 5.11344 2.8125 5.66984 2.8125 6.25C2.8125 6.83016 3.04297 7.38656 3.4532 7.7968C3.86344 8.20703 4.41984 8.4375 5 8.4375ZM14.3744 4.375C11.6862 4.375 9.47875 6.50437 9.37562 9.18875C9.37002 9.39436 9.44573 9.59389 9.58632 9.74403C9.72692 9.89417 9.92105 9.9828 10.1266 9.9907C10.3321 9.9986 10.5325 9.92513 10.6842 9.78622C10.8359 9.64731 10.9267 9.45419 10.9369 9.24875C10.9711 8.35954 11.3482 7.51811 11.9892 6.90081C12.6301 6.28352 13.4851 5.93829 14.375 5.9375C15.2753 5.95459 16.133 6.32422 16.7637 6.96695C17.3944 7.60968 17.7478 8.4742 17.7479 9.37469C17.748 10.2752 17.3948 11.1398 16.7642 11.7826C16.1336 12.4255 15.276 12.7952 14.3756 12.8125H3.28125C3.07405 12.8125 2.87534 12.8948 2.72882 13.0413C2.58231 13.1878 2.5 13.3865 2.5 13.5938C2.5 13.801 2.58231 13.9997 2.72882 14.1462C2.87534 14.2927 3.07405 14.375 3.28125 14.375H14.375C15.0316 14.375 15.6818 14.2456 16.2884 13.9943C16.895 13.743 17.4462 13.3746 17.9104 12.9103C18.3747 12.446 18.743 11.8948 18.9942 11.2881C19.2454 10.6815 19.3747 10.0313 19.3747 9.37469C19.3746 8.71808 19.2453 8.06791 18.994 7.46129C18.7427 6.85468 18.3743 6.30351 17.91 5.83925C17.4457 5.37498 16.8945 5.00672 16.2878 4.75548C15.6812 4.50425 15.031 4.37496 14.3744 4.375ZM23.7419 11.5625C22.9016 11.5623 22.0852 11.8427 21.4224 12.3592C20.7596 12.8758 20.2882 13.5988 20.0831 14.4137L20.0231 14.6544C19.9729 14.8554 20.0046 15.0682 20.1113 15.2459C20.2179 15.4236 20.3908 15.5516 20.5919 15.6019C20.7929 15.6521 21.0057 15.6204 21.1834 15.5137C21.3611 15.4071 21.4891 15.2342 21.5394 15.0331L21.5994 14.7931C21.7199 14.3163 21.996 13.8932 22.3841 13.5911C22.7722 13.2889 23.25 13.1249 23.7419 13.125C24.3229 13.1245 24.8805 13.3545 25.2921 13.7647C25.7037 14.1748 25.9358 14.7314 25.9375 15.3125C25.9375 15.8927 25.707 16.4491 25.2968 16.8593C24.8866 17.2695 24.3302 17.5 23.75 17.5H3.28125C3.07405 17.5 2.87534 17.5823 2.72882 17.7288C2.58231 17.8753 2.5 18.074 2.5 18.2812C2.5 18.4885 2.58231 18.6872 2.72882 18.8337C2.87534 18.9802 3.07405 19.0625 3.28125 19.0625H18.75C19.7762 19.0625 20.625 19.9175 20.625 20.9625C20.625 21.98 19.7981 22.8125 18.7987 22.8125C18.4596 22.8126 18.1272 22.7182 17.8387 22.5399C17.5503 22.3616 17.3172 22.1065 17.1656 21.8031L17.105 21.6819C17.0596 21.5893 16.9963 21.5066 16.9188 21.4386C16.8413 21.3706 16.7512 21.3186 16.6535 21.2856C16.5558 21.2526 16.4525 21.2393 16.3497 21.2464C16.2468 21.2535 16.1464 21.2809 16.0541 21.327C15.9619 21.3731 15.8797 21.4371 15.8123 21.5151C15.7449 21.5931 15.6936 21.6837 15.6614 21.7816C15.6292 21.8796 15.6167 21.9829 15.6246 22.0857C15.6325 22.1885 15.6607 22.2888 15.7075 22.3806L15.7681 22.5019C16.0495 23.0649 16.4821 23.5383 17.0176 23.8692C17.553 24.2001 18.17 24.3752 18.7994 24.375C20.68 24.375 22.1875 22.8244 22.1875 20.9625C22.1876 20.2874 21.9903 19.627 21.62 19.0625H23.75C24.7446 19.0625 25.6984 18.6674 26.4016 17.9642C27.1049 17.2609 27.5 16.3071 27.5 15.3125C27.5 13.2387 25.81 11.5625 23.7419 11.5625ZM11.875 24.375C11.875 24.2092 11.8092 24.0503 11.6919 23.9331C11.5747 23.8158 11.4158 23.75 11.25 23.75C11.0842 23.75 10.9253 23.8158 10.8081 23.9331C10.6908 24.0503 10.625 24.2092 10.625 24.375C10.625 24.5408 10.6908 24.6997 10.8081 24.8169C10.9253 24.9342 11.0842 25 11.25 25C11.4158 25 11.5747 24.9342 11.6919 24.8169C11.8092 24.6997 11.875 24.5408 11.875 24.375ZM13.4375 24.375C13.4375 24.9552 13.207 25.5116 12.7968 25.9218C12.3866 26.332 11.8302 26.5625 11.25 26.5625C10.6698 26.5625 10.1134 26.332 9.7032 25.9218C9.29297 25.5116 9.0625 24.9552 9.0625 24.375C9.0625 23.7948 9.29297 23.2384 9.7032 22.8282C10.1134 22.418 10.6698 22.1875 11.25 22.1875C11.8302 22.1875 12.3866 22.418 12.7968 22.8282C13.207 23.2384 13.4375 23.7948 13.4375 24.375ZM25 7.5C25 7.33424 24.9342 7.17527 24.8169 7.05806C24.6997 6.94085 24.5408 6.875 24.375 6.875C24.2092 6.875 24.0503 6.94085 23.9331 7.05806C23.8158 7.17527 23.75 7.33424 23.75 7.5C23.75 7.66576 23.8158 7.82473 23.9331 7.94194C24.0503 8.05915 24.2092 8.125 24.375 8.125C24.5408 8.125 24.6997 8.05915 24.8169 7.94194C24.9342 7.82473 25 7.66576 25 7.5ZM26.5625 7.5C26.5625 8.08016 26.332 8.63656 25.9218 9.0468C25.5116 9.45703 24.9552 9.6875 24.375 9.6875C23.7948 9.6875 23.2384 9.45703 22.8282 9.0468C22.418 8.63656 22.1875 8.08016 22.1875 7.5C22.1875 6.91984 22.418 6.36344 22.8282 5.9532C23.2384 5.54297 23.7948 5.3125 24.375 5.3125C24.9552 5.3125 25.5116 5.54297 25.9218 5.9532C26.332 6.36344 26.5625 6.91984 26.5625 7.5Z" fill="black"/>
</svg>
