<svg width="44" height="44" viewBox="0 0 44 44" fill="none" xmlns="http://www.w3.org/2000/svg">
<mask id="mask0_65_846" style="mask-type:luminance" maskUnits="userSpaceOnUse" x="0" y="0" width="44" height="44">
<path d="M22 42.8337C33.5062 42.8337 42.8333 33.5066 42.8333 22.0003C42.8333 10.4941 33.5062 1.16699 22 1.16699C10.4937 1.16699 1.16663 10.4941 1.16663 22.0003C1.16663 33.5066 10.4937 42.8337 22 42.8337Z" stroke="white" stroke-width="2"/>
<path d="M22 42.8337C33.5062 42.8337 42.8333 33.5066 42.8333 22.0003C42.8333 10.4941 33.5062 1.16699 22 1.16699C10.4937 1.16699 1.16663 10.4941 1.16663 22.0003C1.16663 33.5066 10.4937 42.8337 22 42.8337Z" fill="white" stroke="white" stroke-width="2" stroke-linejoin="round"/>
<path d="M31.375 25.125L22 15.75L12.625 25.125" stroke="black" stroke-width="2" stroke-linecap="round" stroke-linejoin="round"/>
</mask>
<g mask="url(#mask0_65_846)">
<path d="M-3 -3H47V47H-3V-3Z" fill="white"/>
</g>
</svg>
