<svg width="40" height="40" viewBox="0 0 40 40" fill="none" xmlns="http://www.w3.org/2000/svg">
<path d="M20.6749 35.5232C18.8735 36.2182 16.9429 36.5147 15.016 36.3921C13.0891 36.2696 11.2116 35.731 9.51276 34.8133C7.81394 33.8957 6.33412 32.6208 5.17518 31.0765C4.01624 29.5322 3.20569 27.7551 2.79933 25.8675C2.39297 23.9799 2.40044 22.0267 2.82124 20.1423C3.24203 18.2579 4.06616 16.4871 5.23689 14.9517C6.40761 13.4162 7.89714 12.1528 9.60294 11.2481C11.3087 10.3435 13.1903 9.8193 15.1181 9.7115H15.1301C15.3698 9.6935 15.6216 9.6875 15.8674 9.6875C16.0592 9.6875 16.257 9.6935 16.4488 9.7055H16.4548C19.5394 9.83908 22.4823 11.0373 24.7829 13.0964C27.0834 15.1554 28.5995 17.948 29.0729 20.9989L13.8653 29.9664C15.3979 32.5732 17.8137 34.5445 20.6749 35.5232Z" stroke="black" stroke-linecap="round" stroke-linejoin="round"/>
<path d="M7.46289 16.1262C8.47303 14.8271 9.7133 13.7248 11.1219 12.874" stroke="black" stroke-linecap="round" stroke-linejoin="round"/>
<path d="M5.5166 19.5901C5.75879 18.9511 6.04986 18.3316 6.38723 17.7373" stroke="black" stroke-linecap="round" stroke-linejoin="round"/>
<path d="M20.0572 4.53873C20.0735 4.73949 20.0237 4.94007 19.9155 5.10995C19.8073 5.27984 19.6466 5.40973 19.4578 5.47986C18.4687 5.68965 16.5805 6.49887 16.4546 9.70588H16.4486C16.2567 9.69388 16.059 9.68788 15.8672 9.68788C15.6214 9.68788 15.3696 9.69388 15.1299 9.71188C15.2557 8.42308 15.9211 4.18506 19.2479 3.59162C19.6795 3.51369 20.0572 3.97526 20.0572 4.53873Z" stroke="black" stroke-linecap="round" stroke-linejoin="round"/>
<path d="M10.6754 5.23304C10.5115 5.83335 10.5092 6.46632 10.6689 7.06778C10.8285 7.66923 11.1444 8.21778 11.5844 8.6578C12.0244 9.09781 12.5729 9.41365 13.1744 9.57329C13.7758 9.73293 14.4088 9.73069 15.0091 9.56679C15.1731 8.96648 15.1753 8.33349 15.0157 7.73202C14.8561 7.13055 14.5402 6.58199 14.1002 6.14196C13.6602 5.70193 13.1116 5.38609 12.5101 5.22647C11.9087 5.06684 11.2757 5.06911 10.6754 5.23304Z" stroke="black" stroke-linecap="round" stroke-linejoin="round"/>
<path d="M15.0098 9.56743L13.2158 7.77344" stroke="black" stroke-linecap="round" stroke-linejoin="round"/>
<path d="M35.7387 17.0674L29.0729 20.9997L13.8652 29.9673C14.7123 31.4035 15.8339 32.6588 17.166 33.6616C18.4982 34.6644 20.0148 35.3949 21.6293 35.8115C23.2438 36.2282 24.9246 36.3227 26.5756 36.0898C28.2267 35.8569 29.8157 35.3011 31.2519 34.4541C32.6881 33.607 33.9435 32.4854 34.9462 31.1533C35.949 29.8211 36.6796 28.3045 37.0962 26.69C37.5128 25.0755 37.6074 23.3947 37.3745 21.7437C37.1416 20.0926 36.5857 18.5036 35.7387 17.0674Z" stroke="black" stroke-linecap="round" stroke-linejoin="round"/>
<path d="M24.3135 34.6663L24.5293 33.2276L25.6382 25.7646L27.6583 29.3373L29.9481 33.3775C28.2228 34.3134 26.2741 34.7592 24.3135 34.6663Z" stroke="black" stroke-linecap="round" stroke-linejoin="round"/>
<path d="M34.8915 27.8702C34.1903 29.6129 33.0465 31.1426 31.5732 32.3081L27.041 24.9375L34.8915 27.8702Z" stroke="black" stroke-linecap="round" stroke-linejoin="round"/>
<path d="M34.7938 19.4668C35.633 21.3943 35.8903 23.5252 35.534 25.5971L27.6064 23.7052L34.7938 19.4668Z" stroke="black" stroke-linecap="round" stroke-linejoin="round"/>
<path d="M24.3983 25.5967L21.9815 34.3093C19.6722 33.6986 17.6303 32.3401 16.1748 30.4462L24.3983 25.5967Z" stroke="black" stroke-linecap="round" stroke-linejoin="round"/>
</svg>
