<svg width="70" height="70" viewBox="0 0 70 70" fill="none" xmlns="http://www.w3.org/2000/svg">
<path d="M66.6176 13.1575C66.6013 12.8904 66.4877 12.6385 66.2982 12.4495C66.1088 12.2606 65.8566 12.1476 65.5895 12.1321C51.8492 11.3118 40.8598 15.4407 36.1895 23.1489C33.0067 28.4043 33.1352 34.6114 36.5285 40.7063C34.1338 43.3369 32.5525 46.6049 31.9758 50.1153L25.5528 43.6922C27.9125 39.3172 27.9617 34.852 25.6676 31.0621C22.2715 25.4539 14.3145 22.4571 4.37503 23.0395C4.1093 23.0563 3.85882 23.1694 3.67055 23.3577C3.48228 23.5459 3.36915 23.7964 3.35237 24.0621C2.76995 33.9961 5.76682 41.9532 11.375 45.3492C13.1749 46.4545 15.2457 47.0394 17.3578 47.0391C19.6891 46.9993 21.9738 46.3791 24.0051 45.2344L31.7188 52.9563V61.2496C31.7188 61.5397 31.834 61.8179 32.0391 62.023C32.2442 62.2282 32.5224 62.3434 32.8125 62.3434C33.1026 62.3434 33.3808 62.2282 33.5859 62.023C33.791 61.8179 33.9063 61.5397 33.9063 61.2496V53.186C33.896 49.1479 35.386 45.25 38.0871 42.2485C41.2289 43.9875 44.3953 44.8625 47.4496 44.8625C50.3269 44.8631 53.1481 44.0671 55.6008 42.5629C63.3063 37.8899 67.427 26.9004 66.6176 13.1575ZM12.5071 43.4762C7.78479 40.6215 5.19534 33.8211 5.49065 25.1778C14.134 24.8797 20.9344 27.4719 23.811 32.1942C25.5828 35.1227 25.6129 38.5844 23.9367 42.0625L16.0836 34.2258C15.8756 34.0373 15.603 33.936 15.3223 33.9429C15.0416 33.9498 14.7744 34.0644 14.5758 34.2629C14.3773 34.4615 14.2627 34.7287 14.2558 35.0094C14.2489 35.2901 14.3502 35.5627 14.5387 35.7707L22.3782 43.6102C18.8973 45.2864 15.4356 45.2563 12.5071 43.4762ZM54.466 40.6871C50.0774 43.345 44.8711 43.3094 39.6785 40.6188L55.4614 24.8332C55.658 24.6266 55.7662 24.3514 55.7628 24.0661C55.7594 23.7809 55.6447 23.5083 55.4432 23.3065C55.2417 23.1046 54.9693 22.9894 54.684 22.9855C54.3988 22.9816 54.1234 23.0893 53.9164 23.2856L38.1309 39.0711C35.4403 33.8758 35.3965 28.6805 38.0625 24.2836C42.1942 17.4477 52.0297 13.7481 64.4848 14.2649C65.0043 26.72 61.291 36.5555 54.466 40.6871Z" fill="#F58634"/>
</svg>
