<svg width="70" height="70" viewBox="0 0 70 70" fill="none" xmlns="http://www.w3.org/2000/svg">
<path d="M61.25 20.4167V54.25C61.25 58.1292 58.1292 61.25 54.25 61.25H15.75C11.8708 61.25 8.74999 58.1292 8.74999 54.25V20.4167M23.3333 32.0833H46.6667M7.58332 8.75H62.4167C63.6543 8.75 64.8413 9.24167 65.7165 10.1168C66.5917 10.992 67.0833 12.179 67.0833 13.4167V15.75C67.0833 16.3628 66.9626 16.9697 66.7281 17.5359C66.4936 18.102 66.1498 18.6165 65.7165 19.0498C65.2831 19.4832 64.7687 19.8269 64.2025 20.0614C63.6363 20.296 63.0295 20.4167 62.4167 20.4167H7.58332C6.34565 20.4167 5.15866 19.925 4.28349 19.0498C3.40832 18.1747 2.91666 16.9877 2.91666 15.75V13.4167C2.91666 12.8038 3.03736 12.197 3.27189 11.6308C3.50641 11.0646 3.85015 10.5502 4.28349 10.1168C5.15866 9.24167 6.34565 8.75 7.58332 8.75Z" stroke="#F58634" stroke-width="3" stroke-miterlimit="10" stroke-linecap="round" stroke-linejoin="round"/>
</svg>
