<svg width="50" height="50" viewBox="0 0 50 50" fill="none" xmlns="http://www.w3.org/2000/svg">
<g clip-path="url(#clip0_65_918)">
<rect width="50" height="50" rx="25" fill="#111111"/>
<path d="M37.4605 19.0952C36.5981 19.0952 35.7442 18.9254 34.9474 18.5954C34.1507 18.2653 33.4268 17.7816 32.817 17.1718C32.2072 16.562 31.7234 15.8381 31.3934 15.0414C31.0634 14.2446 30.8935 13.3907 30.8935 12.5283H26.2019V30.9001C26.201 31.7377 25.9365 32.5538 25.4459 33.2326C24.9553 33.9115 24.2634 34.4188 23.4684 34.6825C22.6734 34.9463 21.8156 34.9531 21.0165 34.702C20.2174 34.451 19.5176 33.9548 19.0162 33.2838C18.5148 32.6129 18.2374 31.8011 18.2232 30.9636C18.2089 30.1261 18.4586 29.3054 18.9369 28.6178C19.4152 27.9301 20.0977 27.4104 20.8878 27.1324C21.678 26.8544 22.5355 26.832 23.339 27.0686V22.508C21.6314 22.2777 19.8942 22.5739 18.3594 23.3569C16.8246 24.14 15.5651 25.3726 14.7493 26.8903C13.9335 28.408 13.6 30.1384 13.7936 31.8506C13.9871 33.5627 14.6984 35.1751 15.8324 36.4724C16.9664 37.7696 18.4692 38.6901 20.1401 39.1108C21.811 39.5315 23.5705 39.4324 25.1836 38.8268C26.7967 38.2212 28.1867 37.1379 29.1679 35.7215C30.1491 34.3051 30.6749 32.6231 30.675 30.9001L30.8111 21.6136C32.7388 23.0288 35.0686 23.7902 37.46 23.7867L37.4605 19.0952Z" fill="url(#paint0_linear_65_918)"/>
<path d="M36.2203 17.817C34.4786 17.8169 32.8084 17.125 31.5769 15.8935C30.3454 14.6619 29.6535 12.9916 29.6536 11.25H24.9619V29.6217C24.961 30.4593 24.6965 31.2754 24.2059 31.9543C23.7153 32.6332 23.0235 33.1405 22.2285 33.4043C21.4335 33.668 20.5757 33.6749 19.7766 33.4238C18.9774 33.1728 18.2776 32.6766 17.7762 32.0056C17.2749 31.3346 16.9974 30.5229 16.9832 29.6854C16.9689 28.8479 17.2186 28.0272 17.6969 27.3395C18.1752 26.6519 18.8577 26.1322 19.6479 25.8542C20.438 25.5761 21.2956 25.5538 22.0991 25.7904V21.2296C20.3915 20.9994 18.6543 21.2956 17.1194 22.0786C15.5846 22.8617 14.3251 24.0943 13.5093 25.612C12.6935 27.1297 12.3601 28.8601 12.5536 30.5723C12.7471 32.2844 13.4584 33.8968 14.5924 35.194C15.7264 36.4913 17.2292 37.4117 18.9001 37.8324C20.571 38.2531 22.3305 38.1541 23.9436 37.5485C25.5567 36.9429 26.9467 35.8595 27.9279 34.4432C28.9092 33.0268 29.4349 31.3448 29.435 29.6217L29.5719 20.3354C31.4996 21.7505 33.8294 22.5119 36.2207 22.5084L36.2203 17.817Z" fill="url(#paint1_linear_65_918)"/>
<path d="M36.2203 18.9778C34.597 18.6654 33.1512 17.7524 32.1716 16.4209C30.9334 15.4518 30.084 14.0706 29.7781 12.5283H26.2022V30.9001C26.2021 31.772 25.9167 32.6199 25.3896 33.3145C24.8624 34.009 24.1225 34.512 23.2828 34.7466C22.443 34.9813 21.5495 34.9347 20.7387 34.614C19.9279 34.2933 19.2443 33.7161 18.7923 32.9705C17.9885 32.4473 17.3997 31.6523 17.1336 30.7308C16.8676 29.8093 16.942 28.8228 17.3432 27.9516C17.7444 27.0805 18.4457 26.3827 19.3189 25.986C20.1921 25.5892 21.179 25.5198 22.0991 25.7906V22.4345C20.5208 22.4548 18.9797 22.9159 17.6496 23.7656C16.3196 24.6154 15.2535 25.8201 14.5718 27.2436C13.8901 28.6672 13.6198 30.2529 13.7916 31.8219C13.9633 33.3909 14.5703 34.8806 15.5438 36.123C16.7798 37.1543 18.2841 37.8119 19.8805 38.0187C21.4769 38.2255 23.0991 37.973 24.5571 37.2906C26.0151 36.6083 27.2483 35.5245 28.1123 34.1663C28.9762 32.8081 29.4351 31.2317 29.4351 29.622L29.5719 20.3356C31.4996 21.7508 33.8294 22.5122 36.2207 22.5086L36.2203 18.9778Z" fill="url(#paint2_linear_65_918)"/>
</g>
<defs>
<linearGradient id="paint0_linear_65_918" x1="15.6203" y1="36.2861" x2="35.1358" y2="16.7705" gradientUnits="userSpaceOnUse">
<stop stop-color="#B5053C"/>
<stop offset="0.233" stop-color="#C90441"/>
<stop offset="0.737" stop-color="#F0014B"/>
<stop offset="1" stop-color="#FF004F"/>
</linearGradient>
<linearGradient id="paint1_linear_65_918" x1="14.0895" y1="35.2983" x2="34.6467" y2="14.7412" gradientUnits="userSpaceOnUse">
<stop stop-color="#00B2C9"/>
<stop offset="0.283" stop-color="#00C8D4"/>
<stop offset="0.741" stop-color="#00E6E4"/>
<stop offset="1" stop-color="#00F1EA"/>
</linearGradient>
<linearGradient id="paint2_linear_65_918" x1="2.57248" y1="48.0749" x2="48.0758" y2="2.57156" gradientUnits="userSpaceOnUse">
<stop stop-color="#DDE3E4"/>
<stop offset="1" stop-color="#FCF7F7"/>
</linearGradient>
<clipPath id="clip0_65_918">
<rect width="50" height="50" fill="white"/>
</clipPath>
</defs>
</svg>
