<svg width="70" height="70" viewBox="0 0 70 70" fill="none" xmlns="http://www.w3.org/2000/svg">
<path d="M22.5 42.5002V55.0002M35 42.5002V55.0002M47.5 42.5002V55.0002M61.8 30.0002H8.20005C7.48498 29.9941 6.77692 30.1415 6.12367 30.4324C5.47041 30.7233 4.88715 31.1509 4.41324 31.6864C3.93934 32.2219 3.58581 32.8529 3.37653 33.5367C3.16724 34.2204 3.10706 34.9412 3.20005 35.6502L6.85005 63.1502C7.00871 64.3607 7.60476 65.4713 8.52581 66.2726C9.44686 67.0739 10.6293 67.5105 11.85 67.5002H58.05C59.2708 67.5105 60.4532 67.0739 61.3743 66.2726C62.2953 65.4713 62.8914 64.3607 63.05 63.1502L66.7 35.6502C66.792 34.9495 66.7343 34.2373 66.5309 33.5605C66.3274 32.8838 65.9829 32.2578 65.5199 31.7239C65.0569 31.19 64.4859 30.7604 63.8448 30.4633C63.2036 30.1661 62.5067 30.0083 61.8 30.0002Z" stroke="#F58634" stroke-width="3" stroke-linecap="round" stroke-linejoin="round"/>
<path d="M47.4 7.7002C50.3951 8.21763 53.1393 9.69914 55.2151 11.9194C57.291 14.1396 58.5849 16.9771 58.9 20.0002L60 30.0002M10 30.0002L11.1 20.0002C11.4356 16.995 12.7386 14.1802 14.8128 11.9798C16.8869 9.77945 19.6199 8.31259 22.6 7.8002" stroke="#F58634" stroke-width="3" stroke-linecap="round" stroke-linejoin="round"/>
<path d="M47.5 8.75C47.5 9.57076 47.3383 10.3835 47.0242 11.1418C46.7102 11.9001 46.2498 12.5891 45.6694 13.1694C45.0891 13.7498 44.4001 14.2102 43.6418 14.5242C42.8835 14.8383 42.0708 15 41.25 15H28.75C27.0924 15 25.5027 14.3415 24.3306 13.1694C23.1585 11.9973 22.5 10.4076 22.5 8.75C22.5 7.0924 23.1585 5.50269 24.3306 4.33058C25.5027 3.15848 27.0924 2.5 28.75 2.5H41.25C42.9076 2.5 44.4973 3.15848 45.6694 4.33058C46.8415 5.50269 47.5 7.0924 47.5 8.75Z" stroke="#F58634" stroke-width="3" stroke-linecap="round" stroke-linejoin="round"/>
</svg>
