<svg width="40" height="40" viewBox="0 0 40 40" fill="none" xmlns="http://www.w3.org/2000/svg">
<path d="M36.157 18.6441C35.9542 19.2867 35.7142 19.9169 35.4383 20.5316C33.8804 23.857 31.5513 26.7625 28.6445 29.0066H28.6383C28.6291 29.0164 28.6186 29.0249 28.607 29.0316C26.7799 30.4728 24.7839 31.6859 22.6633 32.6441C21.2907 33.2676 19.8719 33.7837 18.4195 34.1879C12.9133 35.7191 7.47579 35.4379 3.24451 33.5879C2.96393 33.4648 2.73897 33.242 2.61313 32.9626C2.4873 32.6832 2.46953 32.3671 2.56326 32.0754C3.61649 28.932 5.40329 26.0847 7.77576 23.7691C8.68161 22.8601 9.6507 22.0163 10.6758 21.2441C12.3502 20.0006 14.152 18.9384 16.0508 18.0754C19.6043 16.4338 23.4677 15.5707 27.382 15.5441C29.151 15.5368 30.9142 15.7467 32.632 16.1691C33.6049 16.4107 34.5561 16.7326 35.4758 17.1316C35.7554 17.2559 35.9795 17.4788 36.1052 17.7578C36.2309 18.0368 36.2493 18.3524 36.157 18.6441Z" stroke="black" stroke-linecap="round" stroke-linejoin="round"/>
<path d="M7.77734 23.7676L9.70401 27.2471" stroke="black" stroke-linecap="round" stroke-linejoin="round"/>
<path d="M18.4159 34.1891L16.1934 30.1533" stroke="black" stroke-linecap="round" stroke-linejoin="round"/>
<path d="M28.609 29.0317L26.6641 25.5078" stroke="black" stroke-linecap="round" stroke-linejoin="round"/>
<path d="M16.0537 18.0781L17.9855 21.9922" stroke="black" stroke-linecap="round" stroke-linejoin="round"/>
<path d="M27.3809 15.542L29.2123 19.0457" stroke="black" stroke-linecap="round" stroke-linejoin="round"/>
<path d="M24.2354 20.7178L25.1909 22.4297" stroke="black" stroke-linecap="round" stroke-linejoin="round"/>
<path d="M29.4912 21.5742L30.8847 23.545" stroke="black" stroke-linecap="round" stroke-linejoin="round"/>
<path d="M14.5615 26.0527L15.2782 27.6054" stroke="black" stroke-linecap="round" stroke-linejoin="round"/>
<path d="M20.0557 26.8291L21.0908 28.561" stroke="black" stroke-linecap="round" stroke-linejoin="round"/>
<path d="M10.9775 29.6357L11.8932 31.3477" stroke="black" stroke-linecap="round" stroke-linejoin="round"/>
<path d="M36.6195 27.75C34.0757 28.712 31.3609 29.1397 28.6445 29.0062C31.5513 26.7622 33.8804 23.8566 35.4383 20.5312C36.3445 22.2775 37.025 24.132 37.4633 26.05C37.5468 26.3874 37.5078 26.7435 37.3533 27.0548C37.1987 27.3661 36.9387 27.6125 36.6195 27.75Z" stroke="black" stroke-linecap="round" stroke-linejoin="round"/>
<path d="M32.6315 16.1692C30.9137 15.7468 29.1505 15.5369 27.3816 15.5442C23.4672 15.5708 19.6038 16.4338 16.0503 18.0754C14.1515 18.9384 12.3498 20.0006 10.6753 21.2442C10.394 20.9879 10.119 20.7254 9.8503 20.4567C6.25975 17.0134 3.72344 12.6193 2.5378 7.78791C2.45579 7.45142 2.49552 7.09676 2.64995 6.78675C2.80439 6.47674 3.06355 6.23139 3.38155 6.09416C6.1763 5.0451 9.16944 4.63093 12.144 4.88166C16.3584 5.23572 20.4356 6.55061 24.0628 8.72541C27.3587 10.65 30.265 13.1748 32.6315 16.1692Z" stroke="black" stroke-linecap="round" stroke-linejoin="round"/>
<path d="M9.85059 20.4563L12.1851 16.5166" stroke="black" stroke-linecap="round" stroke-linejoin="round"/>
<path d="M24.0626 8.72559L21.7139 13.1196" stroke="black" stroke-linecap="round" stroke-linejoin="round"/>
<path d="M12.1443 4.88379L9.93262 8.80895" stroke="black" stroke-linecap="round" stroke-linejoin="round"/>
<path d="M15.1279 11.1455L13.9824 13.0586" stroke="black" stroke-linecap="round" stroke-linejoin="round"/>
<path d="M9.45059 11.7236L7.81836 13.9027" stroke="black" stroke-linecap="round" stroke-linejoin="round"/>
</svg>
